<svg xmlns="http://www.w3.org/2000/svg" width="74.613" height="19.501" viewBox="0 0 74.613 19.501"><path d="M73.683,19.5H63.293a1.3,1.3,0,0,1-1.316-1.29.983.983,0,0,1,.929-.912H73.3a1.3,1.3,0,0,1,1.316,1.29A.983.983,0,0,1,73.683,19.5Zm-18.024-2.71a5.431,5.431,0,0,1-4.22-1.718,6.613,6.613,0,0,1-1.53-4.548,7.029,7.029,0,0,1,1.629-4.742,5.525,5.525,0,0,1,4.319-1.863,5.87,5.87,0,0,1,2.2.387,5.261,5.261,0,0,1,1.728,1.137,5.393,5.393,0,0,1,1.53,3.9c0,.385-.008.67-.024.871a.947.947,0,0,1-.148.484.522.522,0,0,1-.358.206,4.642,4.642,0,0,1-.654.036H52.7c-.067,0-.1.008-.1.024a3.694,3.694,0,0,0,.963,2.637,3.058,3.058,0,0,0,3.948.556,2.218,2.218,0,0,0,.963-1.234l.222-.653a1.36,1.36,0,0,1,.432-.581,1.125,1.125,0,0,1,.7-.218c.852,0,1.283.407,1.283,1.209a3.6,3.6,0,0,1-1.728,2.9A6.186,6.186,0,0,1,55.659,16.791Zm.222-10.718a3.3,3.3,0,0,0-2.122.871,2.454,2.454,0,0,0-.938,1.815h5.8a2.569,2.569,0,0,0-.814-1.887A2.784,2.784,0,0,0,55.881,6.073ZM44.948,16.694a4.353,4.353,0,0,1-1.789-.339,2.888,2.888,0,0,1-1.2-.968,5.619,5.619,0,0,1-.666-3.073V6.823c0-.114-.016-.17-.049-.17h-.74a1.289,1.289,0,0,1-.9-.327,1.057,1.057,0,0,1-.358-.811,1.082,1.082,0,0,1,.358-.786,1.151,1.151,0,0,1,.827-.351h.913V1.911c0-.8.44-1.21,1.308-1.21a1.083,1.083,0,0,1,1.234,1.21V4.355a.022.022,0,0,0,.025.024h2.542c.852,0,1.283.375,1.283,1.113,0,.771-.448,1.161-1.333,1.161H43.813a.186.186,0,0,1,.074.17V12.46c0,1.381.407,2.081,1.209,2.081.868,0,1.308-.545,1.308-1.621l.049-1.476a1.143,1.143,0,0,1,1.259-1.258c.8,0,1.209.464,1.209,1.38a10.651,10.651,0,0,1-.2,2.213,4.712,4.712,0,0,1-.543,1.464A3.64,3.64,0,0,1,44.948,16.694Zm-29.4,0c-1.031,0-1.687-.61-1.95-1.815L11.6,4.6l-2.221,10.6a2.167,2.167,0,0,1-.6,1.1,1.631,1.631,0,0,1-1.147.4A1.777,1.777,0,0,1,5.8,15.17L2.986,3.605a2.6,2.6,0,0,0-.419-.956.873.873,0,0,0-.716-.3H1.678L1.16,2.4C.39,2.4,0,2.029,0,1.306,0,.552.415.17,1.234.17a5.194,5.194,0,0,1,.839.073A14.2,14.2,0,0,0,4.492.46c.181,0,.475-.02.9-.06.443-.043.98-.1,1.641-.182C7.173.2,7.294.189,7.4.182S7.639.17,7.774.17c.835,0,1.259.366,1.259,1.089,0,.771-.49,1.161-1.456,1.161-.076,0-.177,0-.309-.012s-.248-.021-.382-.036-.25-.028-.371-.037-.186-.012-.222-.012a.4.4,0,0,0-.444.46,3.1,3.1,0,0,0,.074.581l.148.726L7.6,11.856,9.649,1.839a1.951,1.951,0,0,1,2-1.839,1.871,1.871,0,0,1,2,1.669V1.645l.177.924.027.145L14,3.508l.175.92c.158.832.315,1.642.468,2.407.133.663.286,1.451.469,2.407q.235,1.234.531,2.782l1.58-7.573a7.831,7.831,0,0,0,.222-1.5c0-.418-.2-.629-.592-.629-.085,0-.173,0-.259.012s-.191.012-.309.012a2.49,2.49,0,0,1-.358.024h-.309c-.95,0-1.432-.374-1.432-1.113C14.19.536,14.663.17,15.6.17c.151,0,.293,0,.42.012s.26.02.4.036c.611.076,1.155.137,1.616.182.425.041.72.06.9.06A10.183,10.183,0,0,0,20.262.315,10.623,10.623,0,0,1,21.742.17c.852,0,1.283.383,1.283,1.137,0,.707-.423,1.065-1.259,1.065h-.21a1.289,1.289,0,0,1-.259-.024c-.073-.015-.148-.028-.222-.037a1.407,1.407,0,0,0-.148-.012.467.467,0,0,0-.419.242c-.034.1-.09.284-.161.532s-.167.59-.284,1.016L17.423,15.17A1.825,1.825,0,0,1,15.548,16.694ZM39.256,16.5c-.137,0-.3-.008-.494-.024-.212-.017-.444-.041-.691-.073l-.642-.085a3.352,3.352,0,0,0-.444-.036c-.186,0-.39.008-.6.024s-.46.04-.7.073c-.3.033-.541.059-.753.084a4.3,4.3,0,0,1-.506.037c-.884,0-1.333-.374-1.333-1.113,0-.706.407-1.064,1.209-1.064.032,0,.123.008.284.024s.282.032.382.049a1.082,1.082,0,0,0,.272.048h.148c.131,0,.222-.391.271-1.161V7.452c-.049-.755-.149-1.137-.3-1.137a1.092,1.092,0,0,0-.173.024c-.08.016-.177.04-.3.073a.952.952,0,0,1-.284.06c-.1.008-.19.012-.259.012-.835,0-1.259-.358-1.259-1.064,0-.722.481-1.089,1.431-1.089h.444a.937.937,0,0,1,.247.024c.244.034.433.057.58.073s.256.024.309.024c.036,0,.107,0,.21-.012s.209-.021.309-.036l.642-.073c.7,0,1.061.407,1.061,1.209v.339a.61.61,0,0,0-.024.157v.085a4.413,4.413,0,0,0-.025.678c0,.115,0,.233-.012.351s-.012.244-.012.375c-.016.336-.024.658-.024.956V13.3a2.778,2.778,0,0,0,.024.448c.049.478.123.722.22.726a.687.687,0,0,1,.126-.024c.107-.017.231-.042.37-.073l-.025.024c.063-.02.125-.036.185-.049a1.454,1.454,0,0,1,.284-.024c.851,0,1.283.358,1.283,1.064a.972.972,0,0,1-.407.8A1.631,1.631,0,0,1,39.256,16.5Zm-11.9,0h-.074c-.135,0-.3-.008-.481-.024s-.417-.041-.654-.073c-.487-.049-.819-.073-1.012-.073-.318,0-.592,0-.814.012-.24.008-.447.02-.617.037l-1.333.121c-.9,0-1.357-.383-1.357-1.137,0-.674.432-1.016,1.283-1.016a1.837,1.837,0,0,0,.21-.012.176.176,0,0,1,.036,0,.476.476,0,0,1,.174.038l.3.073h.2a.1.1,0,0,0,.074.024h.025c.147,0,.23-.244.247-.726,0-.19.008-.386.024-.581s.025-.383.025-.581l-.074-5.2c-.033-.594-.116-.936-.247-1.016-.036,0-.114.008-.247.024a2.513,2.513,0,0,1-.271.024h.049a2.558,2.558,0,0,1-.617.073c-.77,0-1.16-.358-1.16-1.064,0-.739.465-1.113,1.382-1.113a1.094,1.094,0,0,0,.3.036c.171.008.32.02.444.037s.25.028.383.037.224.012.284.012h.136a1.027,1.027,0,0,0,.21-.024.276.276,0,0,0,.086-.012.378.378,0,0,1,.111-.012,2.676,2.676,0,0,1,.518-.048c.54,0,.864.212.962.629a4.3,4.3,0,0,1,2.887-1.041,5.063,5.063,0,0,1,1.654.254,3.847,3.847,0,0,1,1.283.726,3.258,3.258,0,0,1,.839,1.125,3.474,3.474,0,0,1,.3,1.452A2.779,2.779,0,0,1,32.2,9.351a2.085,2.085,0,0,1-1.654.714,1.783,1.783,0,0,1-1.2-.411,1.293,1.293,0,0,1-.482-1.016,1.18,1.18,0,0,1,.407-.871,1.311,1.311,0,0,1,.925-.387c.013,0,.021,0,.022,0s-.007-.009-.021-.015l.049.019V7.259a1.092,1.092,0,0,0-.482-.9A1.939,1.939,0,0,0,28.57,6,2.022,2.022,0,0,0,26.5,7.4a9.008,9.008,0,0,0-.345,2.854V12.9a3.078,3.078,0,0,0,.024.508c.082.707.19,1.065.321,1.065a2.7,2.7,0,0,0,.271-.012c.071-.007.152-.019.247-.037a2.007,2.007,0,0,1,.567-.1c.753,0,1.135.35,1.135,1.04C28.718,16.118,28.261,16.5,27.36,16.5ZM36.59,3.75a1.712,1.712,0,0,1-1.209-.46,1.5,1.5,0,0,1-.494-1.137,1.461,1.461,0,0,1,.494-1.125A1.739,1.739,0,0,1,36.59.581a1.785,1.785,0,0,1,1.222.448,1.443,1.443,0,0,1,.506,1.125,1.481,1.481,0,0,1-.506,1.137A1.751,1.751,0,0,1,36.59,3.75Z" fill="#fff"/></svg>